<svg width="125" height="32" viewBox="0 0 125 32" fill="none" xmlns="http://www.w3.org/2000/svg">
<path d="M48.3642 4.4809C47.8172 4.03912 47.123 3.78667 46.2605 3.7446H42.8946C41.8848 3.78667 41.1274 4.06015 40.6646 4.56504C40.2018 5.06993 39.9704 5.63793 39.9704 6.31112V12.7064C39.9704 13.4006 40.328 13.9265 41.0012 14.2421C41.5482 14.4945 42.0952 14.6208 42.6211 14.6208H45.7135C46.5971 14.6208 46.8075 14.768 46.8285 14.768C46.8706 14.8101 46.9758 14.8942 46.9758 15.1888V20.995C46.9758 21.3947 46.8916 21.7102 46.7443 21.9206C46.5971 22.131 46.2184 22.1731 45.9449 22.1731H43.3784C42.6 22.1731 42.4317 21.9837 42.4107 21.9627C42.3055 21.8365 42.2003 21.563 42.2003 21.016V16.9559H39.9494V21.7313C39.9494 22.3414 40.2439 22.8883 40.8329 23.3511C41.3799 23.7929 42.0741 24.0454 42.9366 24.0874H46.3026C47.3123 24.0454 48.0697 23.7719 48.5325 23.267C48.9953 22.7621 49.2267 22.1941 49.2267 21.5209V14.5787C49.2267 14.2421 49.1005 13.9265 48.8691 13.6951C48.6798 13.5058 48.4694 13.3165 48.238 13.1692C48.0066 13.0219 47.7331 12.9168 47.4596 12.8326C47.1651 12.7485 46.9337 12.7064 46.7443 12.7064H43.126C42.5159 12.7064 42.3476 12.6222 42.3266 12.6433C42.2634 12.5171 42.2214 12.3277 42.2214 12.0753V6.81601C42.2214 6.4163 42.2845 6.07971 42.4317 5.86934C42.5369 5.72208 42.8315 5.63793 43.2522 5.63793H45.8187C46.555 5.63793 46.7443 5.80623 46.7864 5.86934C46.9337 6.05867 46.9968 6.39527 46.9968 6.83705V10.8551H49.2478V6.10075C49.2478 5.49067 48.9532 4.94371 48.3642 4.4809Z" fill="black"/>
<path d="M63.2795 4.48089C62.7325 4.03911 62.0383 3.78666 61.1758 3.74459H57.8309C56.8001 3.74459 56.0427 4.01807 55.5799 4.544C55.1171 5.04889 54.8857 5.63793 54.8857 6.31111V21.5209C54.8857 22.131 55.0961 22.699 55.5378 23.2249C55.9796 23.7508 56.7369 24.0454 57.7678 24.0874H61.4282H61.4492C62.3328 24.0454 63.006 23.7929 63.4688 23.3091C63.9316 22.8252 64.1841 22.2782 64.1841 21.6892V6.12178C64.163 5.49067 63.8685 4.9437 63.2795 4.48089ZM61.9121 6.83704V20.9529C61.9121 21.3947 61.8279 21.7313 61.7017 21.9206C61.6596 21.9837 61.4703 22.152 60.734 22.152H58.6934C57.6626 22.152 57.4101 21.9416 57.3681 21.8996C57.1998 21.7102 57.1156 21.3947 57.1156 20.9739V6.816C57.1156 6.43733 57.2208 6.16385 57.4101 5.95348C57.6205 5.74311 57.8519 5.63793 58.1464 5.63793H60.7129C61.4492 5.63793 61.6386 5.80622 61.6807 5.86933C61.8279 6.05867 61.9121 6.39526 61.9121 6.83704Z" fill="black"/>
<path d="M78.1737 4.48089C77.6268 4.03911 76.9325 3.78666 76.07 3.74459H72.7251C71.8205 3.74459 71.0842 3.99703 70.5583 4.52296C70.0324 5.04889 69.7799 5.63793 69.7799 6.31111V21.5209C69.7799 22.131 69.9903 22.699 70.4321 23.2249C70.8739 23.7508 71.6102 24.0454 72.662 24.0874H76.3225C77.206 24.0454 77.8792 23.7929 78.3631 23.3091C78.8259 22.8252 79.0783 22.2782 79.0783 21.6892V16.9559H76.8274V20.9739C76.8274 21.4157 76.7432 21.7523 76.617 21.9416C76.5749 22.0048 76.3856 22.1731 75.6493 22.1731H73.6928C72.7041 22.1731 72.4096 21.9837 72.3254 21.8996C72.1361 21.7102 72.0519 21.3947 72.0519 20.995V6.816C72.0519 6.43733 72.1571 6.16385 72.3465 5.95348C72.5568 5.74311 72.7882 5.63793 73.0828 5.63793H75.6493C76.4276 5.63793 76.5959 5.82726 76.617 5.8483C76.7222 5.97452 76.8274 6.248 76.8274 6.79496V10.8341H79.0783V6.10074C79.0573 5.49067 78.7628 4.9437 78.1737 4.48089Z" fill="black"/>
<path d="M94.3723 3.74459H91.8899L86.9251 12.4539V3.74459H84.6952V24.0664H86.9251V16.5141L88.1453 14.4945L92.0792 24.0664H94.4354L89.6179 12.2015L94.3723 3.74459Z" fill="black"/>
<path d="M99.8208 24.0664H109.14V22.152H102.072V14.5576H108.341V12.6643H102.072V5.63793H109.14V3.74459H99.8208V24.0664Z" fill="black"/>
<path d="M114.757 3.74459V5.63793H118.291V24.0664H120.584V5.63793H124.119V3.74459H114.757Z" fill="black"/>
<path d="M12.2225 9.29837C12.2225 8.24652 11.36 7.384 10.3082 7.384C9.25632 7.384 8.3938 8.24652 8.3938 9.29837C8.3938 10.3502 9.25632 11.2127 10.3082 11.2127C11.36 11.2127 12.2225 10.3502 12.2225 9.29837Z" fill="black"/>
<path d="M23.0987 9.29837C23.0987 8.24652 22.2362 7.384 21.1843 7.384C20.1325 7.384 19.2699 8.24652 19.2699 9.29837C19.2699 10.3502 20.1325 11.2127 21.1843 11.2127C22.2362 11.2127 23.0987 10.3502 23.0987 9.29837Z" fill="black"/>
<path d="M30.9034 28.8839H28.6735V27.1378H30.9034C31.3031 27.1378 31.6187 26.8223 31.6187 26.4225C31.6187 26.0228 31.3031 25.7073 30.9034 25.7073H28.6735V25.4548C28.6735 25.0551 28.358 24.7396 27.9583 24.7396C26.1701 24.7396 24.8868 25.539 24.424 26.8643C24.3609 26.8433 24.2978 26.8223 24.2137 26.8223H2.39822V2.39822H28.7577V19.2279C28.7577 19.88 29.3046 20.427 29.9568 20.427C30.6089 20.427 31.1559 19.9011 31.1559 19.2279V1.19911C31.1559 0.546963 30.6089 0 29.9568 0H1.19911C0.546964 0 0 0.525926 0 1.19911V28.0214C0 28.6735 0.525927 29.2205 1.19911 29.2205H24.2137C24.2768 29.2205 24.3399 29.1994 24.403 29.1784C24.9289 30.7141 26.4857 31.3031 27.9583 31.3031C28.358 31.3031 28.6735 30.9876 28.6735 30.5879V30.3354H30.9034C31.3031 30.3354 31.6187 30.0199 31.6187 29.6202C31.6187 29.2205 31.3031 28.8839 30.9034 28.8839ZM27.243 29.8095C26.4646 29.6623 25.6442 29.2205 25.6442 28.0214C25.6442 26.8012 26.4646 26.3805 27.243 26.2332V29.8095Z" fill="black"/>
<path d="M16.0933 20.0694C13.9686 20.0694 12.2225 19.7538 12.1173 19.7538C11.4021 19.6276 10.9393 18.9544 11.0655 18.2391C11.1917 17.5239 11.8439 17.0611 12.5802 17.1873C12.6222 17.1873 16.1985 17.8184 18.9965 17.1873C19.7117 17.04 20.4059 17.4818 20.5532 18.176C20.7005 18.8913 20.2587 19.5855 19.5645 19.7328C18.4074 19.9852 17.2083 20.0694 16.0933 20.0694Z" fill="black"/>
</svg>
