<svg width="236" height="236" viewBox="0 0 236 236" fill="none" xmlns="http://www.w3.org/2000/svg">
<path fill-rule="evenodd" clip-rule="evenodd" d="M30 0C13.4315 0 0 13.4315 0 30V206C0 222.569 13.4315 236 30 236H206C222.569 236 236 222.569 236 206V30C236 13.4315 222.569 0 206 0H30Z" fill="#023E8A"/>
<path d="M0 184.923V48.5455H59.1326C69.5208 48.5455 78.2442 49.9439 85.3028 52.7407C92.4058 55.5375 97.7553 59.4885 101.351 64.5938C104.991 69.6991 106.812 75.7145 106.812 82.6399C106.812 87.6564 105.702 92.229 103.482 96.3576C101.307 100.486 98.2436 103.949 94.2925 106.746C90.3415 109.498 85.7245 111.407 80.4417 112.473V113.804C86.3017 114.026 91.6289 115.514 96.4234 118.266C101.218 120.974 105.036 124.725 107.877 129.52C110.718 134.27 112.139 139.864 112.139 146.301C112.139 153.759 110.186 160.396 106.279 166.211C102.417 172.027 96.9118 176.6 89.7644 179.929C82.617 183.259 74.0933 184.923 64.1935 184.923H0ZM37.0245 155.357H54.3381C60.5532 155.357 65.2146 154.203 68.3221 151.894C71.4297 149.541 72.9835 146.079 72.9835 141.506C72.9835 138.31 72.251 135.602 70.786 133.382C69.321 131.162 67.2345 129.475 64.5265 128.321C61.8628 127.167 58.6443 126.59 54.8708 126.59H37.0245V155.357ZM37.0245 103.683H52.2072C55.4479 103.683 58.3113 103.172 60.7974 102.151C63.2834 101.13 65.2146 99.665 66.5908 97.756C68.0114 95.8027 68.7217 93.4276 68.7217 90.6308C68.7217 86.4134 67.2123 83.1949 64.1935 80.9752C61.1747 78.7111 57.3569 77.579 52.7399 77.579H37.0245V103.683Z" fill="white"/>
<path d="M125.79 184.923V82.6399H161.483V102.084H162.548C164.413 94.8926 167.365 89.632 171.405 86.3024C175.489 82.9729 180.261 81.3081 185.722 81.3081C187.32 81.3081 188.896 81.4413 190.45 81.7077C192.048 81.9296 193.579 82.2626 195.044 82.7065V114.071C193.224 113.449 190.982 112.983 188.319 112.672C185.655 112.362 183.369 112.206 181.46 112.206C177.864 112.206 174.623 113.028 171.738 114.67C168.896 116.268 166.655 118.532 165.012 121.462C163.369 124.348 162.548 127.744 162.548 131.651V184.923H125.79Z" fill="white"/>
<path d="M215.355 187.054C210.205 187.054 205.788 185.256 202.103 181.66C198.463 178.02 196.665 173.603 196.709 168.409C196.665 163.348 198.463 159.02 202.103 155.424C205.788 151.828 210.205 150.03 215.355 150.03C220.238 150.03 224.544 151.828 228.273 155.424C232.047 159.02 233.956 163.348 234 168.409C233.956 171.872 233.046 175.024 231.27 177.865C229.538 180.662 227.274 182.903 224.478 184.59C221.681 186.233 218.64 187.054 215.355 187.054Z" fill="white"/>
</svg>
