<svg width="285" height="108" viewBox="0 0 285 108" fill="none" xmlns="http://www.w3.org/2000/svg">
<path d="M32.8494 5.42185V1.45452H56.4893V5.42185H46.9588V32H42.3651V5.42185H32.8494Z" fill="#023E8A"/>
<path d="M70.0148 18.3977V32H65.5553V1.45452H69.9551V12.8196H70.2385C70.7755 11.5866 71.5958 10.6072 72.6995 9.88137C73.8032 9.15552 75.2449 8.79259 77.0247 8.79259C78.5958 8.79259 79.9679 9.11575 81.1412 9.76205C82.3245 10.4084 83.2392 11.3728 83.8855 12.6555C84.5418 13.9282 84.8699 15.5192 84.8699 17.4282V32H80.4104V17.9652C80.4104 16.2848 79.9779 14.9822 79.1128 14.0575C78.2478 13.1228 77.0446 12.6555 75.5034 12.6555C74.4495 12.6555 73.5049 12.8792 72.6696 13.3267C71.8443 13.7741 71.1931 14.4304 70.7158 15.2954C70.2485 16.1505 70.0148 17.1846 70.0148 18.3977Z" fill="#023E8A"/>
<path d="M95.0209 32V9.09089H99.4804V32H95.0209ZM97.273 5.55609C96.4975 5.55609 95.8313 5.29756 95.2745 4.78052C94.7276 4.25353 94.4541 3.62711 94.4541 2.90126C94.4541 2.16546 94.7276 1.53904 95.2745 1.022C95.8313 0.495007 96.4975 0.231513 97.273 0.231513C98.0486 0.231513 98.7098 0.495007 99.2567 1.022C99.8135 1.53904 100.092 2.16546 100.092 2.90126C100.092 3.62711 99.8135 4.25353 99.2567 4.78052C98.7098 5.29756 98.0486 5.55609 97.273 5.55609Z" fill="#023E8A"/>
<path d="M114.139 18.3977V32H109.68V9.09089H113.96V12.8196H114.244C114.771 11.6065 115.596 10.6321 116.72 9.89629C117.853 9.16049 119.28 8.79259 121 8.79259C122.561 8.79259 123.928 9.12072 125.102 9.77697C126.275 10.4233 127.185 11.3878 127.831 12.6704C128.477 13.9531 128.801 15.539 128.801 17.4282V32H124.341V17.9652C124.341 16.3047 123.909 15.0071 123.044 14.0724C122.178 13.1278 120.99 12.6555 119.479 12.6555C118.445 12.6555 117.525 12.8792 116.72 13.3267C115.924 13.7741 115.293 14.4304 114.825 15.2954C114.368 16.1505 114.139 17.1846 114.139 18.3977Z" fill="#023E8A"/>
<path d="M148.587 41.0682C146.767 41.0682 145.201 40.8295 143.888 40.3523C142.586 39.875 141.522 39.2436 140.697 38.4581C139.871 37.6726 139.255 36.8125 138.847 35.8778L142.68 34.2969C142.949 34.7344 143.307 35.1967 143.754 35.6839C144.212 36.1811 144.828 36.6037 145.604 36.9517C146.389 37.2997 147.398 37.4737 148.631 37.4737C150.322 37.4737 151.719 37.0611 152.822 36.2358C153.926 35.4204 154.478 34.1179 154.478 32.3281V27.8238H154.195C153.926 28.3111 153.538 28.853 153.031 29.4496C152.534 30.0461 151.848 30.5632 150.973 31.0007C150.098 31.4382 148.959 31.6569 147.557 31.6569C145.748 31.6569 144.117 31.2344 142.665 30.3892C141.224 29.5341 140.08 28.2763 139.235 26.6157C138.4 24.9453 137.982 22.892 137.982 20.4559C137.982 18.0199 138.395 15.9318 139.22 14.1917C140.055 12.4517 141.199 11.1193 142.65 10.1946C144.102 9.25992 145.748 8.79259 147.587 8.79259C149.009 8.79259 150.158 9.03123 151.033 9.5085C151.908 9.97583 152.589 10.5227 153.076 11.1491C153.573 11.7755 153.956 12.3274 154.224 12.8047H154.552V9.09089H158.923V32.5071C158.923 34.4758 158.465 36.0916 157.55 37.3544C156.636 38.6172 155.398 39.5518 153.837 40.1584C152.285 40.7649 150.535 41.0682 148.587 41.0682ZM148.542 27.9581C149.825 27.9581 150.908 27.6598 151.793 27.0632C152.688 26.4567 153.364 25.5916 153.822 24.468C154.289 23.3345 154.523 21.9773 154.523 20.3963C154.523 18.8551 154.294 17.4978 153.837 16.3246C153.379 15.1513 152.708 14.2365 151.823 13.5802C150.938 12.914 149.844 12.5809 148.542 12.5809C147.2 12.5809 146.081 12.929 145.186 13.625C144.291 14.3111 143.615 15.2457 143.158 16.429C142.71 17.6122 142.486 18.9346 142.486 20.3963C142.486 21.8977 142.715 23.2152 143.173 24.3487C143.63 25.4822 144.306 26.3672 145.201 27.0035C146.106 27.6399 147.219 27.9581 148.542 27.9581Z" fill="#023E8A"/>
<path d="M186.27 14.6839L182.228 15.3998C182.059 14.8828 181.791 14.3906 181.423 13.9233C181.065 13.4559 180.578 13.0731 179.961 12.7748C179.345 12.4765 178.574 12.3274 177.649 12.3274C176.387 12.3274 175.333 12.6108 174.488 13.1775C173.642 13.7344 173.22 14.4552 173.22 15.3402C173.22 16.1058 173.503 16.7223 174.07 17.1896C174.637 17.6569 175.551 18.0398 176.814 18.338L180.453 19.1733C182.561 19.6605 184.132 20.4112 185.167 21.4254C186.201 22.4396 186.718 23.7571 186.718 25.3778C186.718 26.75 186.32 27.973 185.524 29.0469C184.739 30.1108 183.64 30.946 182.228 31.5525C180.826 32.1591 179.201 32.4623 177.351 32.4623C174.786 32.4623 172.693 31.9155 171.072 30.8217C169.451 29.718 168.457 28.152 168.089 26.1236L172.399 25.4673C172.668 26.5909 173.22 27.441 174.055 28.0177C174.89 28.5845 175.979 28.8679 177.321 28.8679C178.783 28.8679 179.951 28.5646 180.826 27.9581C181.701 27.3416 182.139 26.5909 182.139 25.7059C182.139 24.99 181.87 24.3885 181.333 23.9013C180.806 23.414 179.996 23.0461 178.902 22.7976L175.024 21.9474C172.887 21.4602 171.306 20.6846 170.282 19.6207C169.267 18.5568 168.76 17.2095 168.76 15.5788C168.76 14.2265 169.138 13.0433 169.894 12.0291C170.649 11.0149 171.694 10.2244 173.026 9.65765C174.358 9.08095 175.885 8.79259 177.605 8.79259C180.081 8.79259 182.029 9.32952 183.451 10.4034C184.873 11.4673 185.813 12.8942 186.27 14.6839Z" fill="#023E8A"/>
<path d="M220.786 32.4623C218.638 32.4623 216.764 31.9702 215.163 30.9858C213.562 30.0014 212.319 28.6243 211.434 26.8544C210.549 25.0845 210.107 23.0163 210.107 20.6498C210.107 18.2734 210.549 16.1953 211.434 14.4155C212.319 12.6356 213.562 11.2535 215.163 10.2692C216.764 9.28478 218.638 8.79259 220.786 8.79259C222.934 8.79259 224.808 9.28478 226.409 10.2692C228.01 11.2535 229.253 12.6356 230.138 14.4155C231.023 16.1953 231.465 18.2734 231.465 20.6498C231.465 23.0163 231.023 25.0845 230.138 26.8544C229.253 28.6243 228.01 30.0014 226.409 30.9858C224.808 31.9702 222.934 32.4623 220.786 32.4623ZM220.801 28.7187C222.193 28.7187 223.346 28.3508 224.261 27.615C225.176 26.8792 225.852 25.8998 226.29 24.6768C226.737 23.4538 226.961 22.1065 226.961 20.6349C226.961 19.1733 226.737 17.8309 226.29 16.6079C225.852 15.375 225.176 14.3856 224.261 13.6399C223.346 12.8942 222.193 12.5213 220.801 12.5213C219.399 12.5213 218.236 12.8942 217.311 13.6399C216.396 14.3856 215.715 15.375 215.268 16.6079C214.83 17.8309 214.611 19.1733 214.611 20.6349C214.611 22.1065 214.83 23.4538 215.268 24.6768C215.715 25.8998 216.396 26.8792 217.311 27.615C218.236 28.3508 219.399 28.7187 220.801 28.7187Z" fill="#023E8A"/>
<path d="M251.545 9.09089V12.6704H238.599V9.09089H251.545ZM242.149 32V6.43606C242.149 5.00424 242.462 3.81603 243.089 2.87143C243.715 1.91688 244.545 1.20594 245.58 0.738616C246.614 0.261342 247.737 0.0227051 248.95 0.0227051C249.845 0.0227051 250.611 0.0972795 251.247 0.246428C251.884 0.385632 252.356 0.514893 252.664 0.634212L251.62 4.24359C251.411 4.18393 251.143 4.11433 250.815 4.03478C250.487 3.94529 250.089 3.90055 249.621 3.90055C248.538 3.90055 247.762 4.16901 247.295 4.70594C246.837 5.24288 246.609 6.01845 246.609 7.03265V32H242.149Z" fill="#023E8A"/>
<path d="M0.640625 107V35H31.8594C37.3438 35 41.9492 35.7383 45.6758 37.2148C49.4258 38.6914 52.25 40.7773 54.1484 43.4726C56.0703 46.168 57.0313 49.3437 57.0313 53C57.0313 55.6484 56.4453 58.0625 55.2734 60.2422C54.125 62.4219 52.5078 64.25 50.4219 65.7265C48.3359 67.1797 45.8984 68.1875 43.1094 68.75V69.4531C46.2031 69.5703 49.0156 70.3555 51.5469 71.8086C54.0781 73.2383 56.0938 75.2187 57.5938 77.75C59.0938 80.2578 59.8438 83.2109 59.8438 86.6094C59.8438 90.5469 58.8125 94.0508 56.75 97.1211C54.7109 100.191 51.8047 102.605 48.0312 104.363C44.2578 106.121 39.7578 107 34.5312 107H0.640625ZM20.1875 91.3906H29.3281C32.6094 91.3906 35.0703 90.7812 36.7109 89.5625C38.3516 88.3203 39.1719 86.4922 39.1719 84.0781C39.1719 82.3906 38.7852 80.9609 38.0117 79.789C37.2383 78.6172 36.1367 77.7265 34.707 77.1172C33.3008 76.5078 31.6016 76.2031 29.6094 76.2031H20.1875V91.3906ZM20.1875 64.1094H28.2031C29.9141 64.1094 31.4258 63.8398 32.7383 63.3008C34.0508 62.7617 35.0703 61.9883 35.7969 60.9805C36.5469 59.9492 36.9219 58.6953 36.9219 57.2187C36.9219 54.9922 36.125 53.293 34.5312 52.1211C32.9375 50.9258 30.9219 50.3281 28.4844 50.3281H20.1875V64.1094Z" fill="#023E8A"/>
<path d="M67.0508 107V53H85.8945V63.2656H86.457C87.4414 59.4687 89 56.6914 91.1328 54.9336C93.2891 53.1758 95.8086 52.2969 98.6914 52.2969C99.5352 52.2969 100.367 52.3672 101.188 52.5078C102.031 52.625 102.84 52.8008 103.613 53.0351V69.5937C102.652 69.2656 101.469 69.0195 100.062 68.8555C98.6563 68.6914 97.4492 68.6094 96.4414 68.6094C94.543 68.6094 92.832 69.043 91.3086 69.9101C89.8086 70.7539 88.625 71.9492 87.7578 73.4961C86.8906 75.0195 86.457 76.8125 86.457 78.875V107H67.0508Z" fill="#023E8A"/>
<path d="M122.51 107.844C119.064 107.844 116.018 107.281 113.369 106.156C110.744 105.008 108.682 103.273 107.182 100.953C105.682 98.6328 104.932 95.6797 104.932 92.0937C104.932 89.1406 105.436 86.6211 106.443 84.5351C107.451 82.4258 108.857 80.7031 110.662 79.3672C112.467 78.0312 114.564 77.0117 116.955 76.3086C119.369 75.6055 121.971 75.1484 124.76 74.9375C127.783 74.7031 130.209 74.4219 132.037 74.0937C133.889 73.7422 135.225 73.2617 136.045 72.6523C136.865 72.0195 137.275 71.1875 137.275 70.1562V70.0156C137.275 68.6094 136.736 67.5312 135.658 66.7812C134.58 66.0312 133.197 65.6562 131.51 65.6562C129.658 65.6562 128.146 66.0664 126.975 66.8867C125.826 67.6836 125.135 68.914 124.9 70.5781H107.041C107.275 67.2969 108.318 64.2734 110.17 61.5078C112.045 58.7187 114.775 56.4922 118.361 54.8281C121.947 53.1406 126.424 52.2969 131.791 52.2969C135.658 52.2969 139.127 52.7539 142.197 53.668C145.268 54.5586 147.881 55.8125 150.037 57.4297C152.193 59.0234 153.834 60.8984 154.959 63.0547C156.107 65.1875 156.682 67.5078 156.682 70.0156V107H138.541V99.4062H138.119C137.041 101.422 135.729 103.051 134.182 104.293C132.658 105.535 130.912 106.437 128.943 107C126.998 107.562 124.854 107.844 122.51 107.844ZM128.838 95.6094C130.314 95.6094 131.697 95.3047 132.986 94.6953C134.299 94.0859 135.365 93.207 136.186 92.0586C137.006 90.9101 137.416 89.5156 137.416 87.875V83.375C136.9 83.5859 136.35 83.7851 135.764 83.9726C135.201 84.1601 134.592 84.3359 133.936 84.5C133.303 84.664 132.623 84.8164 131.896 84.957C131.193 85.0976 130.455 85.2265 129.682 85.3437C128.182 85.5781 126.951 85.9648 125.99 86.5039C125.053 87.0195 124.35 87.664 123.881 88.4375C123.436 89.1875 123.213 90.0312 123.213 90.9687C123.213 92.4687 123.74 93.6172 124.795 94.414C125.85 95.2109 127.197 95.6094 128.838 95.6094Z" fill="#023E8A"/>
<path d="M185.36 76.625V107H165.954V53H184.376V63.2656H184.938C186.11 59.8437 188.173 57.1601 191.126 55.2148C194.103 53.2695 197.571 52.2969 201.532 52.2969C205.353 52.2969 208.669 53.1758 211.481 54.9336C214.317 56.668 216.509 59.0586 218.056 62.1055C219.626 65.1523 220.399 68.6328 220.376 72.5469V107H200.97V76.625C200.993 73.9531 200.313 71.8555 198.931 70.332C197.571 68.8086 195.673 68.0469 193.235 68.0469C191.642 68.0469 190.247 68.3984 189.052 69.1015C187.88 69.7812 186.978 70.7656 186.345 72.0547C185.712 73.3203 185.384 74.8437 185.36 76.625Z" fill="#023E8A"/>
<path d="M249.503 107.703C245.659 107.703 242.12 106.695 238.886 104.68C235.675 102.664 233.097 99.6055 231.151 95.5039C229.229 91.4023 228.269 86.2344 228.269 80C228.269 73.4844 229.276 68.1875 231.292 64.1094C233.331 60.0312 235.956 57.043 239.167 55.1445C242.401 53.2461 245.8 52.2969 249.362 52.2969C252.034 52.2969 254.378 52.7656 256.394 53.7031C258.409 54.6172 260.097 55.8476 261.456 57.3945C262.815 58.918 263.847 60.5937 264.55 62.4219H264.831V35H284.237V107H264.972V98.1406H264.55C263.8 99.9687 262.722 101.609 261.315 103.062C259.933 104.492 258.245 105.629 256.253 106.473C254.284 107.293 252.034 107.703 249.503 107.703ZM256.675 92.7969C258.456 92.7969 259.979 92.2812 261.245 91.25C262.534 90.1953 263.519 88.7187 264.198 86.8203C264.901 84.8984 265.253 82.625 265.253 80C265.253 77.3281 264.901 75.043 264.198 73.1445C263.519 71.2226 262.534 69.7578 261.245 68.75C259.979 67.7187 258.456 67.2031 256.675 67.2031C254.894 67.2031 253.37 67.7187 252.104 68.75C250.862 69.7578 249.901 71.2226 249.222 73.1445C248.565 75.043 248.237 77.3281 248.237 80C248.237 82.6719 248.565 84.9687 249.222 86.8906C249.901 88.789 250.862 90.2539 252.104 91.2851C253.37 92.293 254.894 92.7969 256.675 92.7969Z" fill="#023E8A"/>
</svg>
