<svg width="94" height="42" viewBox="0 0 94 42" fill="none" xmlns="http://www.w3.org/2000/svg">
<path fill-rule="evenodd" clip-rule="evenodd" d="M30.6307 4.66444C30.413 4.06047 30.0403 3.52752 29.5518 3.12149C29.0633 2.71547 28.477 2.4513 27.8544 2.35671L12.6685 0.0374952C12.0498 -0.0578657 11.4174 0.0295721 10.8457 0.289507C10.2741 0.549442 9.78694 0.971044 9.44178 1.50464L0.442483 15.4024C0.156566 15.8459 0.00285256 16.3649 3.93186e-05 16.8961C-0.00277392 17.4274 0.145434 17.948 0.426637 18.3947L7.73766 29.9516C8.32766 30.8855 9.23093 31.567 10.2777 31.8678L24.9968 36.1139C25.52 36.2649 26.0783 36.2261 26.5767 36.0039C27.0751 35.7818 27.4829 35.39 27.7309 34.8952L34.9515 20.4878C35.2075 19.9776 35.3574 19.4187 35.3915 18.8464C35.4256 18.274 35.3432 17.7007 35.1495 17.1625L30.6314 4.66579L30.6307 4.66444Z" fill="#DC281E"/>
<path fill-rule="evenodd" clip-rule="evenodd" d="M23.3873 7.73629C24.2549 7.88888 24.451 8.8672 23.8106 9.91979C23.5622 10.3373 23.2313 10.6971 22.839 10.9761C22.4468 11.2552 22.0018 11.4473 21.5327 11.5402C20.1774 12.8761 18.8221 14.2132 17.4668 15.5514C17.3651 16.87 15.6643 18.4958 14.3874 18.2136C12.9407 17.8929 13.8942 15.9626 14.629 15.2577L14.3425 12.9743C14.1818 13.0075 14.0161 13.0049 13.8565 12.9665C13.697 12.9282 13.5474 12.8551 13.4181 12.7521L10.2007 14.5981C9.81773 15.6209 8.46486 16.8997 7.35233 16.6533C6.56002 16.4777 6.43391 15.517 7.06116 14.5015C7.3354 14.0636 7.69503 13.6883 8.11757 13.3989L8.78245 10.6719C8.75009 10.6686 8.71642 10.6632 8.68671 10.6571C7.90034 10.5025 7.76895 9.56668 8.38761 8.56878C8.70566 8.06173 9.13757 7.63974 9.64738 7.33794L10.3578 4.8398C9.77019 4.58594 9.68568 3.80949 10.266 2.87506C10.8464 1.94062 12.0038 1.19388 12.7935 1.31879C13.5832 1.44369 13.7357 2.35247 13.1197 3.3443C12.8236 3.8151 12.4295 4.21325 11.9655 4.51032L11.2221 7.12593C11.7503 7.42639 11.7853 8.24267 11.2478 9.10959C11.0299 9.45919 10.7571 9.76965 10.4404 10.0285L9.71935 12.9871C9.7802 13.0051 9.83906 13.0296 9.89498 13.06L13.3778 11.0608C13.4183 10.9794 13.4641 10.8974 13.5152 10.8151C14.1444 9.79219 15.3177 9.08933 16.147 9.24395C16.9762 9.39856 17.1439 10.3607 16.5108 11.395C16.299 11.7361 16.0351 12.0402 15.729 12.2957C15.8201 13.0159 15.9106 13.7343 16.0004 14.4509C16.1762 14.4035 16.3582 14.3842 16.5398 14.3935L20.3033 10.68C20.2786 10.2047 20.4091 9.73442 20.6743 9.3432C21.3102 8.30343 22.5231 7.58235 23.388 7.73494L23.3873 7.73629ZM30.2758 9.98191C30.6719 9.13187 31.2536 9.31281 31.5765 10.3512C31.8893 11.4415 31.8516 12.6057 31.4689 13.6724C31.0919 14.5062 30.5168 14.3921 30.1833 13.3969C29.8425 12.2801 29.875 11.0791 30.2758 9.98326V9.98191ZM31.4603 18.9239C31.8267 18.0961 32.3602 18.1643 32.6534 19.0515C32.9342 20.0418 32.8937 21.0986 32.5378 22.0634C32.1872 22.8736 31.661 22.8622 31.3579 22.0135C31.0531 21.0009 31.0891 19.913 31.4603 18.9239ZM28.4739 18.2561C28.8741 17.3784 29.4756 17.4615 29.8176 18.4094C30.1478 19.4558 30.1182 20.5862 29.7337 21.6131C29.3521 22.4719 28.7598 22.4516 28.4066 21.5456C28.0468 20.4755 28.0702 19.3095 28.4726 18.2555L28.4739 18.2561ZM28.2098 26.2745C28.5987 25.3967 29.1857 25.3873 29.5198 26.2225C29.8415 27.2025 29.8136 28.2673 29.4412 29.2283C29.0708 30.0851 28.4931 30.1533 28.1478 29.358C27.7979 28.3574 27.82 27.2602 28.2098 26.2751V26.2745ZM25.0195 23.7851C25.4486 22.8513 26.1162 22.8723 26.5097 23.7973C26.8893 24.8505 26.8734 26.0104 26.4648 27.0523C26.0567 27.9631 25.4011 28.0076 24.9957 27.1313C24.581 26.0545 24.5895 24.8556 25.0195 23.7851ZM21.6812 20.1682C22.1553 19.1798 22.9146 19.2466 23.3761 20.285C23.8234 21.4211 23.8234 22.6902 23.3761 23.8263C22.9265 24.7891 22.183 24.7958 21.7076 23.8135C21.4653 23.2384 21.3381 22.6194 21.3335 21.9932C21.329 21.367 21.4472 20.7462 21.6812 20.1675V20.1682ZM18.5509 26.1995C19.6066 26.5575 20.5031 27.2883 21.0797 28.2608C21.5241 29.1196 21.1253 29.5801 20.2135 29.3121C19.1966 28.9522 18.3303 28.2481 17.758 27.3163C17.2852 26.4574 17.6259 25.9457 18.5509 26.2015V26.1995ZM19.2218 31.1445C20.1779 31.4901 20.9951 32.1502 21.5452 33.0215C21.9513 33.7689 21.5815 34.1348 20.7377 33.8566C19.8132 33.5101 19.0204 32.8716 18.4744 32.0337C18.0439 31.2836 18.3648 30.8737 19.2218 31.1411V31.1445ZM13.8479 26.6438C14.8247 26.9997 15.6599 27.6741 16.2249 28.5633C16.6831 29.3593 16.3747 29.7881 15.5527 29.5369C14.6099 29.1801 13.8012 28.5282 13.2418 27.6741C12.7592 26.8727 13.016 26.4048 13.8479 26.6438ZM12.2369 28.967C13.1396 29.3151 13.9161 29.9383 14.4613 30.7522C14.905 31.4767 14.6383 31.8507 13.8809 31.6016C13.0071 31.2556 12.2528 30.6534 11.7127 29.8704C11.2505 29.1412 11.4717 28.7287 12.2369 28.967ZM7.48966 24.07C8.43011 24.4301 9.23773 25.0804 9.80056 25.9308C10.2984 26.7201 10.0805 27.1643 9.32782 26.9368C8.41873 26.5792 7.63491 25.9519 7.077 25.1355C6.5587 24.3421 6.73103 23.8587 7.48966 24.0727V24.07ZM3.00454 18.9988C3.99275 19.3697 4.83967 20.0529 5.4224 20.9494C5.97701 21.8123 5.80337 22.3342 5.05266 22.1309C4.10037 21.7597 3.28151 21.1002 2.70544 20.2405C2.12904 19.3735 2.25053 18.8091 3.00586 18.9981L3.00454 18.9988Z" fill="white"/>
<path fill-rule="evenodd" clip-rule="evenodd" d="M42.7731 14.9439C42.0468 16.8944 39.9617 22.1338 40.6966 24.1903C41.1238 25.3894 43.9603 23.1533 44.8028 20.0718C45.4888 17.5649 46.6653 18.2718 46.394 18.8997C45.7621 20.3608 44.882 21.5835 45.3138 22.3917C46.1807 24.0155 49.1961 19.5917 50.1086 17.5905C50.3212 17.1247 51.1135 17.7931 49.6464 19.8929C48.8323 21.0569 48.798 20.6943 48.489 22.4666C48.4028 22.9191 48.4357 23.3869 48.5845 23.822C48.7332 24.2572 48.9924 24.6441 49.3354 24.9432L49.2918 25.0181C48.042 24.0526 47.9858 22.9811 48.3015 21.5153C47.3111 22.6631 45.4082 24.8912 44.5618 22.5585C42.9587 25.0032 40.3823 26.0491 40.072 24.1512C39.524 20.8307 41.5688 17.8228 42.7731 14.9439ZM86.4914 21.6132C91.2142 18.0645 86.6353 18.0348 85.9737 22.7029C85.8205 23.7832 87.1912 24.8216 89.5021 21.4127L90.7315 19.3588C90.6345 17.2023 90.9296 14.929 92.9856 13.7549C93.6776 13.3592 93.9912 14.607 93.6155 15.3753C90.1703 22.4011 91.8289 18.1678 90.8279 24.1876L90.7619 24.166L90.8009 20.88C86.1725 28.2164 83.3842 22.5328 87.1146 19.1677C88.6048 17.8167 90.8233 19.0482 86.4914 21.6132ZM91.1488 18.6614C91.6037 17.8998 93.0068 15.2855 93.0748 14.4658C92.1115 14.9999 91.0848 16.9768 91.1495 18.6614H91.1488ZM81.7877 20.6909C81.9393 21.3601 81.9514 22.0543 81.8233 22.7286C83.4964 21.6206 83.9243 19.9084 84.4756 19.6795C84.9913 19.4662 84.9305 20.5572 84.0009 21.7726C84.0315 21.8497 84.0677 21.9244 84.1092 21.996L84.0709 22.0514C84.0022 22.0167 83.9394 21.9711 83.8847 21.9164C82.7906 23.2532 81.0588 24.0047 81.14 23.3207L81.7877 20.6909ZM76.0844 16.3698C75.3079 17.9801 72.6762 23.156 72.5111 24.5948C72.0245 28.8261 76.5717 26.2476 79.0219 21.3067C72.764 17.8701 80.3424 1.79424 84.3099 4.1884C87.9664 6.39216 81.4582 18.8896 79.77 21.435C80.1602 21.6125 80.112 21.6726 79.7039 21.5322C74.7936 29.8665 71.287 27.6486 72.0529 24.561C72.8168 21.7145 74.7144 18.662 76.0804 16.3725L76.0844 16.3698ZM79.1652 21.096C82.7543 15.4813 87.5504 1.37293 82.2459 5.13094C78.7743 7.58991 74.303 17.8552 79.1652 21.0947V21.096ZM67.6146 15.1626C67.2587 19.6863 67.4707 18.371 66.3766 22.7759C70.2887 17.0072 71.0645 18.4163 74.717 15.4732L74.7738 15.5171C71.1998 18.5155 69.4363 19.0921 67.3703 22.68C67.998 23.1731 68.5906 23.7113 69.1438 24.2903C68.3363 24.7325 67.5453 24.0202 67.0263 23.2849C65.383 26.1956 65.9785 24.4955 65.2139 27.4528C65.1842 27.5675 62.8238 28.6863 65.0059 25.0377C65.7936 23.7204 67.2125 17.2496 67.6133 15.1633L67.6146 15.1626ZM69.46 18.9713L69.4633 18.9672L69.4581 18.9726L69.46 18.9713ZM53.5049 21.1419C53.8423 20.5782 54.9733 19.2164 53.4039 19.4344C51.5327 19.6944 49.274 24.8081 53.2593 21.5673C54.8855 20.2446 54.395 19.0908 55.4718 18.3265C55.6184 18.2225 55.7775 18.4615 55.761 18.583C55.493 20.5134 54.119 20.329 54.8367 22.4876C55.2018 23.58 55.9327 23.8683 56.968 23.2978L60.1735 21.3296C61.9708 14.5231 64.4541 7.9258 67.5836 1.64368C68.5944 -0.334575 71.868 -1.03 71.0229 2.46536C69.1741 10.5046 66.1284 16.8094 60.987 21.6963C59.2459 28.5877 58.1195 34.7507 59.0564 41.9811L58.9758 42C57.0545 35.0093 58.3017 28.976 59.9603 22.1783C58.9488 22.7819 57.2103 24.0013 56.2562 24.1296C54.8274 24.2538 54.0827 22.7711 54.1077 21.4383C50.9927 24.4712 49.2469 22.6084 52.121 19.8645C52.9609 19.0631 55.701 18.3575 53.5076 21.1426L53.5049 21.1419ZM61.5455 20.0239C66.1158 15.6494 68.4617 8.38729 70.2028 2.29859C70.5191 -0.25828 69.0421 1.21494 68.2115 2.1379L61.5475 20.0239H61.5455ZM57.2143 23.8149H57.209L57.2242 23.8068L57.2143 23.8149Z" fill="#1D2023"/>
</svg>
