<svg width="130" height="26" viewBox="0 0 130 26" fill="none" xmlns="http://www.w3.org/2000/svg">
<path d="M36.7746 0.0019989H31.1466V25.625H36.7746V0.0019989Z" fill="#1A237E"/>
<path fill-rule="evenodd" clip-rule="evenodd" d="M67.8269 25.625H58.6278C51.0164 25.625 44.2692 21.1736 44.2692 12.8857C44.2692 3.51244 51.1599 0.0019989 59.3852 0.0019989H67.8269V11.9766H62.1987V5.21189H58.88C54.118 5.21189 50.1135 7.56412 50.1135 12.5916C50.1135 18.4185 54.0462 20.409 59.2766 20.409H67.8269V25.625Z" fill="#1A237E"/>
<path fill-rule="evenodd" clip-rule="evenodd" d="M107.814 25.624H113.441V14.5544H124.372V25.624H130V0H124.372V9.55471H113.441V0H107.814V25.624Z" fill="#1A237E"/>
<path fill-rule="evenodd" clip-rule="evenodd" d="M76.9398 0.00713348H86.1388C93.7512 0.00713348 100.497 4.4585 100.497 12.7463C100.497 22.1206 93.6057 25.6302 85.3804 25.6302H76.9388V13.6554H82.5658V20.4203H85.8846C90.6465 20.4203 94.6512 18.0679 94.6512 13.0405C94.6512 7.21358 90.7194 5.22315 85.488 5.22315H76.9377L76.9398 0.00713348Z" fill="#1A237E"/>
<path fill-rule="evenodd" clip-rule="evenodd" d="M23.3107 10.5408H13.8011V15.4996H18.1613V19.4611C16.6069 20.2804 14.8712 20.6948 13.1144 20.6663C8.54819 20.6663 5.56247 17.361 5.56247 12.8142C5.56247 8.2675 8.54922 4.96199 13.1144 4.96199C14.2076 4.88966 15.3034 5.05884 16.3239 5.45758C17.3444 5.85632 18.2646 6.47482 19.0192 7.26916L22.7951 3.13653C20.3578 0.863163 16.959 0.00221252 13.1144 0.00221252C5.52968 0.00221252 0 4.99685 0 12.8142C0 20.6316 5.52661 25.6263 13.1144 25.6263C16.6532 25.6876 20.1534 24.8836 23.3107 23.2842V10.5408Z" fill="#1A237E"/>
</svg>
