<svg width="86" height="42" viewBox="0 0 86 42" fill="none" xmlns="http://www.w3.org/2000/svg">
<path d="M37.2918 17.6688C34.5217 22.6774 33.185 23.4083 34.0492 28.2039C36.2293 25.0399 38.3086 23.2829 37.2918 17.6688Z" fill="#283135"/>
<path d="M37.3269 24.6307C34.5568 29.6393 33.2201 30.3702 34.0842 35.1658C36.2642 32.0017 38.3433 30.2447 37.3269 24.6307Z" fill="#283135"/>
<path d="M37.2576 10.708C34.4876 15.7156 33.1508 16.4465 34.0149 21.2421C36.1949 18.0781 38.2742 16.3221 37.2576 10.708Z" fill="#283135"/>
<path d="M29.6495 13.9226C32.4882 18.8923 33.8349 19.6052 33.0365 24.4124C30.8133 21.2779 28.7096 19.5504 29.6495 13.9226Z" fill="#283135"/>
<path d="M29.7105 20.8846C32.5493 25.8541 33.8959 26.5671 33.0975 31.3732C30.8743 28.2398 28.7707 26.5122 29.7105 20.8846Z" fill="#283135"/>
<path d="M29.5885 6.96186C32.4272 11.9315 33.7739 12.6444 32.9756 17.4505C30.7522 14.3171 28.6487 12.5885 29.5885 6.96186Z" fill="#283135"/>
<path d="M37.196 3.74618C34.4259 8.75479 33.0892 9.48568 33.9535 14.2813C36.1335 11.1173 38.2128 9.36015 37.196 3.74618Z" fill="#283135"/>
<path d="M29.5275 0C32.3662 4.96959 33.7128 5.68255 32.9145 10.4887C30.6912 7.35525 28.5877 5.6277 29.5275 0Z" fill="#283135"/>
<path d="M40.2266 33.3919H42.1046L42.261 33.2357V23.7522L42.1046 23.5645H40.2266V22.1554H42.1046L42.261 21.9993V21.1545C42.261 14.8002 43.8886 12.3596 47.9262 12.3596C48.9591 12.3596 49.9919 12.5474 50.8371 12.8912V16.6468H50.6804L48.9591 14.4563C48.3331 14.0187 47.8322 13.7676 46.9559 13.7676C45.2345 13.7676 44.452 15.2072 44.452 18.212V21.9993L44.6086 22.1554H49.1468V23.5645H44.6086L44.452 23.7522V33.2357L44.6086 33.3919H46.9559V34.8009H40.2266V33.3919Z" fill="#283135"/>
<path d="M71.0558 33.3919V34.8009H67.3312L61.5408 27.8211L66.2982 23.9399L64.4828 22.3125V22.1554H70.7114V22.2503L63.7629 27.3518C64.4203 28.0404 69.1777 33.3919 69.1777 33.3919H71.0558ZM61.4468 33.3919H63.3248V34.8009H57.065V33.3919H58.9429L59.0994 33.2357V15.395L57.0024 14.3941V14.237L61.1026 12.2658L61.2904 12.3596V33.2357L61.4468 33.3919Z" fill="#283135"/>
<path d="M81.197 27.0702C81.197 24.2847 79.9757 22.688 78.3486 22.688C76.721 22.688 75.563 23.8461 75.563 26.3192C75.563 29.0107 76.6272 30.5443 78.3799 30.5443C80.1015 30.5443 81.197 29.5107 81.197 27.0702ZM75.4065 36.2405C74.9995 36.8975 74.6866 37.7117 74.6866 38.5565C74.6866 40.2155 75.8134 40.9042 77.5662 40.9042C79.7258 40.9042 82.6683 39.8084 82.6683 37.8995C82.6683 36.8353 81.7602 36.366 79.7882 36.366H77.4723C76.6898 36.366 76.0012 36.3343 75.4065 36.2405ZM85.7975 24.1277L82.8241 23.8461C83.294 24.6286 83.5131 25.5367 83.5131 26.5375C83.5131 29.8555 80.728 31.6084 78.067 31.6084C77.2843 31.6084 76.5958 31.4829 76.0012 31.2329C75.6569 31.7022 75.3439 32.2654 75.3439 32.8286C75.3439 33.7051 75.9073 34.1121 78.7242 34.1121H79.5383C83.1998 34.1121 84.6711 35.0202 84.6711 36.9291C84.6711 40.5287 80.6963 42 77.1593 42C74.4361 42 72.5269 41.1542 72.5269 39.3074C72.5269 37.8372 73.7163 37.023 74.7179 36.115C73.7789 35.8334 73.1843 35.3018 73.1843 34.206C73.1843 32.9541 74.405 31.7961 75.4691 30.9819C73.998 30.1994 73.2156 28.7291 73.2156 27.0069C73.2156 23.4706 75.9073 21.6555 78.599 21.6555C80.1331 21.6555 81.3212 22.1554 82.1676 23.0013L85.7975 21.4984V24.1277Z" fill="#283135"/>
<path d="M14.8671 33.3317V34.7407H8.45073V33.3317H10.4852L10.6417 33.1756V27.2284C10.6417 24.5368 10.0784 23.5982 7.76225 23.5982C6.60412 23.5982 5.47742 23.7859 4.28796 24.0359V33.1756L4.44447 33.3317H6.47893V34.7407H0.0626466V33.3317H1.94048L2.097 33.1756V15.3349L0 14.3329V14.1769L4.10013 12.2046L4.28796 12.2985V23.4105C6.10326 22.2524 7.54309 21.5943 8.76373 21.5943C11.5806 21.5943 12.8326 22.9095 12.8326 25.2572V33.1756L12.9891 33.3317H14.8671Z" fill="#283135"/>
<path d="M24.1318 32.894V28.919C21.4713 29.1067 19.0925 29.5444 19.0925 31.6421C19.0925 32.8624 19.9376 33.4255 21.127 33.4255C22.0974 33.4255 23.2554 33.2062 24.1318 32.894ZM28.3571 33.3317V34.7407H24.1318V33.4572C22.6607 34.4591 21.3773 35.053 20.0003 35.053C18.1535 35.053 16.8704 33.8327 16.8704 32.0482C16.8704 29.1689 19.9063 28.1048 24.1318 27.917V26.9468C24.1318 24.4746 23.5684 23.2849 21.2835 23.2849C19.8438 23.2849 18.7483 23.7543 17.6528 24.4746L17.246 23.7227C18.6857 22.3463 20.1255 21.5943 22.1286 21.5943C24.664 21.5943 26.3227 23.0656 26.3227 25.6949V33.1757L26.4791 33.3317H28.3571Z" fill="#283135"/>
</svg>
