<svg width="131" height="42" viewBox="0 0 131 42" fill="none" xmlns="http://www.w3.org/2000/svg">
<path fill-rule="evenodd" clip-rule="evenodd" d="M0.204759 16.1446L46.3658 0.0157063V0.0145158C46.4995 -0.0327082 46.6499 0.03912 46.6956 0.174443C46.7055 0.203016 46.7103 0.232779 46.7103 0.260161V41.7409C46.7103 41.8833 46.5936 42 46.4511 42L46.4166 41.9976L0.246836 39.7491C0.109131 39.7416 0.00119053 39.6277 0.00119053 39.49H0V16.3989C0 16.2751 0.0869084 16.1707 0.20477 16.1461V16.1449V16.1445L0.204759 16.1446ZM130.047 40.7027V20.365H128.119L123.91 22.7274L124.453 24.4104L127.847 22.4834V40.7032H130.047L130.047 40.7028L130.047 40.7027ZM118.944 31.0904C118.374 34.9148 116.237 38.4332 112.265 38.9923L110.174 39.1277V41.0015C115.297 41.2297 119.187 38.1133 120.61 33.1901C121.933 28.6165 121.463 20.009 115.008 20.0126C107.023 20.0161 106.17 33.3413 114.194 33.3437C116.098 33.3437 117.714 32.5587 118.864 31.0904H118.945H118.944L118.944 31.0904ZM114.817 21.75C118.128 21.7674 118.955 25.5843 118.944 28.3114C118.928 31.971 110.87 33.8509 110.853 27.0304C110.846 24.5997 112.072 21.7687 114.817 21.75H114.817L114.817 21.75ZM5.24728 20.5868C4.7544 20.4456 4.23771 20.7281 4.09644 21.2218C3.95397 21.7143 4.23771 22.2302 4.73019 22.3726L21.5944 27.2538L21.9714 26.9415L38.7626 13.0817C39.1582 12.7567 39.2154 12.1702 38.8892 11.7745C38.5642 11.3777 37.9776 11.3206 37.582 11.6468L21.1678 25.195L5.24727 20.5868L5.24728 20.5868Z" fill="#1E75BA"/>
<path fill-rule="evenodd" clip-rule="evenodd" d="M106.297 30.0318H99.8883V31.8509H104.07V38.477C102.424 39.3997 99.066 39.1778 97.3497 38.4992C91.8498 36.3253 91.4133 27.6432 94.9738 23.9812C97.4219 21.4636 102.055 21.0719 105.129 22.5636L105.727 20.691C103.086 19.452 99.1502 19.5786 96.5536 20.604C88.7148 23.7006 88.6827 35.2066 94.1912 39.1862C97.4231 41.5224 102.682 41.3057 106.297 39.8608V30.0314V30.0318V30.0318ZM87.837 20.6909C84.7416 18.7079 77.2612 19.446 77.275 25.1701C77.2862 29.9334 82.4749 30.5223 84.6972 32.172C87.9251 34.5693 86.4346 40.1783 80.2613 38.933C79.2716 38.7334 78.2747 38.3599 77.4647 37.8242L76.8397 39.6981C80.172 42.0458 88.6247 41.6513 88.6247 35.1904C88.6247 28.2754 79.5557 30.0302 79.5557 24.8724C79.5557 21.1274 84.7841 21.0143 87.1588 22.562L87.837 20.6905V20.6909V20.6909ZM73.2594 20.0115H70.4355C68.7489 24.7066 65.7515 32.4438 64.5166 37.444H64.4348C63.0026 31.8077 60.6188 25.54 58.7056 20.0128H55.9364L54.4967 40.7041H56.642L57.6191 22.4831H57.7008C59.0687 28.1925 61.6073 35.0122 63.5122 40.6211H65.1678C67.2873 34.6685 69.6311 28.4976 71.3871 22.4831H71.4677C71.4367 27.1904 72.0891 36.2214 72.3371 40.7029H74.563L73.2598 20.0116H73.2594L73.2594 20.0115Z" fill="#4B4B4D"/>
</svg>
