<svg width="192" height="192" viewBox="0 0 192 192" fill="none" xmlns="http://www.w3.org/2000/svg">
<g clip-path="url(#clip0_367_90)">
<g clip-path="url(#clip1_367_90)">
<rect width="192" height="192" fill="white"/>
<path d="M0 15.36C0 6.8769 6.87691 0 15.36 0H176.64C185.123 0 192 6.87691 192 15.36V176.64C192 185.123 185.123 192 176.64 192H15.36C6.8769 192 0 185.123 0 176.64V15.36Z" fill="url(#paint0_linear_367_90)"/>
<path fill-rule="evenodd" clip-rule="evenodd" d="M114.469 39.141C113.88 37.5422 112.357 36.48 110.653 36.48H81.892C80.1883 36.48 78.6652 37.5422 78.0765 39.141L38.6539 146.209C37.6766 148.864 39.6409 151.68 42.4694 151.68H150.076C152.904 151.68 154.868 148.864 153.891 146.209L114.469 39.141ZM118.983 125.929L96.2725 64.2487L73.5616 125.929H118.983Z" fill="white"/>
</g>
</g>
<defs>
<linearGradient id="paint0_linear_367_90" x1="0.209886" y1="95.3255" x2="191.861" y2="95.3255" gradientUnits="userSpaceOnUse">
<stop stop-color="#D90000"/>
<stop offset="0.25" stop-color="#6720B0"/>
<stop offset="0.5" stop-color="#34199C"/>
<stop offset="0.75" stop-color="#4764E6"/>
<stop offset="1" stop-color="#0094D5"/>
</linearGradient>
<clipPath id="clip0_367_90">
<rect width="192" height="192" fill="white"/>
</clipPath>
<clipPath id="clip1_367_90">
<rect width="192" height="192" fill="white"/>
</clipPath>
</defs>
</svg>
