<svg width="218" height="32" viewBox="0 0 218 32" fill="none" xmlns="http://www.w3.org/2000/svg">
<path d="M48.3192 24.1558L43.5004 7.08138H46.8268L49.9032 19.6287H50.0616L53.3465 7.08138H56.3728L59.666 19.6371H59.8161L62.8925 7.08138H66.219L61.4001 24.1558H58.3487L54.9305 12.1754H54.7971L51.3706 24.1558H48.3192Z" fill="black"/>
<path d="M82.9384 15.6186C82.9384 17.4584 82.5938 19.034 81.9046 20.3458C81.221 21.6519 80.2872 22.6523 79.1033 23.3471C77.925 24.0419 76.5883 24.3893 75.0932 24.3893C73.598 24.3893 72.2585 24.0419 71.0747 23.3471C69.8964 22.6468 68.9626 21.6436 68.2734 20.3374C67.5897 19.0257 67.248 17.4528 67.248 15.6186C67.248 13.7789 67.5897 12.2059 68.2734 10.8998C68.9626 9.58806 69.8964 8.58483 71.0747 7.89006C72.2585 7.1953 73.598 6.84792 75.0932 6.84792C76.5883 6.84792 77.925 7.1953 79.1033 7.89006C80.2872 8.58483 81.221 9.58806 81.9046 10.8998C82.5938 12.2059 82.9384 13.7789 82.9384 15.6186ZM79.8287 15.6186C79.8287 14.3235 79.6258 13.2314 79.22 12.3421C78.8198 11.4473 78.264 10.7719 77.5527 10.3162C76.8412 9.85483 76.0213 9.62419 75.0932 9.62419C74.165 9.62419 73.3451 9.85483 72.6338 10.3162C71.9223 10.7719 71.3637 11.4473 70.958 12.3421C70.5578 13.2314 70.3576 14.3235 70.3576 15.6186C70.3576 16.9136 70.5578 18.0086 70.958 18.9034C71.3637 19.7927 71.9223 20.4681 72.6338 20.9293C73.3451 21.3851 74.165 21.613 75.0932 21.613C76.0213 21.613 76.8412 21.3851 77.5527 20.9293C78.264 20.4681 78.8198 19.7927 79.22 18.9034C79.6258 18.0086 79.8287 16.9136 79.8287 15.6186Z" fill="black"/>
<path d="M86.0975 24.1558V7.08138H92.5004C93.8122 7.08138 94.9127 7.30925 95.8019 7.76502C96.6968 8.22078 97.3721 8.85996 97.8283 9.68256C98.289 10.4996 98.5199 11.4528 98.5199 12.5422C98.5199 13.6371 98.2861 14.5876 97.8195 15.3935C97.3582 16.1938 96.6773 16.8136 95.7769 17.2526C94.8765 17.6862 93.7704 17.903 92.4587 17.903H87.8983V15.3351H92.0419C92.8089 15.3351 93.4369 15.2295 93.926 15.0183C94.4151 14.8015 94.7764 14.4875 95.0099 14.0763C95.2489 13.6593 95.3684 13.148 95.3684 12.5422C95.3684 11.9364 95.2489 11.4195 95.0099 10.9915C94.7709 10.558 94.4068 10.23 93.9177 10.0077C93.4286 9.77982 92.7977 9.66588 92.0251 9.66588H89.1906V24.1558H86.0975ZM94.9181 16.419L99.1449 24.1558H95.6935L91.5416 16.419H94.9181Z" fill="black"/>
<path d="M101.601 24.1558V7.08138H104.694V14.9266H104.903L111.564 7.08138H115.341L108.738 14.7432L115.4 24.1558H111.681L106.587 16.8358L104.694 19.0702V24.1558H101.601Z" fill="black"/>
<path d="M126.913 11.7752C126.834 11.0471 126.507 10.4801 125.929 10.0744C125.356 9.66865 124.611 9.46579 123.694 9.46579C123.05 9.46579 122.496 9.56305 122.035 9.75758C121.574 9.95216 121.221 10.2161 120.977 10.5496C120.732 10.8831 120.607 11.2639 120.601 11.6918C120.601 12.0475 120.681 12.3559 120.843 12.6172C121.01 12.8784 121.235 13.1008 121.518 13.2842C121.801 13.462 122.115 13.6121 122.461 13.7344C122.805 13.8566 123.152 13.9595 123.503 14.0429L125.103 14.4431C125.748 14.5931 126.368 14.796 126.963 15.0516C127.562 15.3073 128.099 15.6297 128.572 16.0188C129.049 16.4078 129.428 16.8775 129.706 17.4277C129.983 17.978 130.122 18.6227 130.122 19.362C130.122 20.3624 129.867 21.2434 129.355 22.0048C128.844 22.7607 128.104 23.3526 127.138 23.7806C126.176 24.203 125.012 24.4142 123.644 24.4142C122.316 24.4142 121.163 24.2086 120.184 23.7973C119.212 23.386 118.45 22.7858 117.9 21.9965C117.355 21.2072 117.061 20.2457 117.016 19.1118H120.059C120.103 19.7065 120.287 20.2012 120.61 20.5958C120.932 20.9904 121.352 21.2851 121.868 21.4795C122.391 21.6741 122.974 21.7713 123.619 21.7713C124.292 21.7713 124.881 21.6714 125.387 21.4712C125.898 21.2656 126.298 20.9821 126.587 20.6209C126.877 20.254 127.023 19.8261 127.029 19.3369C127.023 18.8923 126.893 18.5255 126.637 18.2364C126.382 17.9419 126.023 17.6973 125.562 17.5028C125.106 17.3027 124.573 17.1248 123.961 16.9692L122.019 16.469C120.612 16.1077 119.501 15.5602 118.684 14.8265C117.872 14.0873 117.466 13.1063 117.466 11.8836C117.466 10.8776 117.739 9.99657 118.284 9.24068C118.834 8.48477 119.581 7.8984 120.526 7.48155C121.471 7.05913 122.541 6.84792 123.736 6.84792C124.947 6.84792 126.009 7.05913 126.921 7.48155C127.838 7.8984 128.558 8.47922 129.08 9.22401C129.603 9.96321 129.872 10.8136 129.888 11.7752H126.913Z" fill="black"/>
<path d="M133.115 24.1558V7.08138H139.517C140.829 7.08138 141.929 7.32593 142.819 7.81504C143.714 8.30415 144.389 8.97668 144.845 9.83263C145.306 10.683 145.537 11.6502 145.537 12.7339C145.537 13.8289 145.306 14.8015 144.845 15.652C144.384 16.5023 143.703 17.172 142.802 17.6612C141.902 18.1448 140.793 18.3865 139.476 18.3865H135.233V15.8437H139.059C139.826 15.8437 140.454 15.7103 140.943 15.4435C141.433 15.1768 141.793 14.8099 142.027 14.343C142.266 13.8761 142.385 13.3398 142.385 12.7339C142.385 12.1281 142.266 11.5945 142.027 11.1332C141.793 10.6719 141.43 10.3134 140.935 10.0577C140.445 9.79653 139.815 9.66588 139.042 9.66588H136.208V24.1558H133.115Z" fill="black"/>
<path d="M148.748 24.1558H145.446L151.457 7.08138H155.276L161.295 24.1558H157.994L153.433 10.5829H153.3L148.748 24.1558ZM148.856 17.4611H157.861V19.9456H148.856V17.4611Z" fill="black"/>
<path d="M177.592 12.8423H174.474C174.385 12.331 174.221 11.878 173.982 11.4834C173.742 11.0832 173.445 10.7441 173.09 10.4662C172.734 10.1883 172.328 9.97994 171.872 9.84093C171.422 9.69644 170.936 9.62419 170.413 9.62419C169.485 9.62419 168.662 9.85766 167.945 10.3245C167.228 10.7858 166.667 11.4639 166.262 12.3588C165.856 13.2481 165.653 14.3347 165.653 15.6186C165.653 16.9247 165.856 18.0252 166.262 18.9201C166.673 19.8094 167.234 20.4819 167.945 20.9377C168.662 21.3879 169.482 21.613 170.405 21.613C170.916 21.613 171.395 21.5463 171.839 21.4129C172.29 21.2739 172.693 21.071 173.048 20.8043C173.409 20.5375 173.712 20.2096 173.956 19.8205C174.207 19.4314 174.379 18.9868 174.474 18.4866L177.592 18.5032C177.475 19.3147 177.222 20.0762 176.832 20.7876C176.449 21.499 175.946 22.1271 175.324 22.6718C174.702 23.2109 173.973 23.6334 173.14 23.9391C172.306 24.2392 171.381 24.3893 170.363 24.3893C168.863 24.3893 167.523 24.0419 166.345 23.3471C165.166 22.6523 164.238 21.6491 163.56 20.3374C162.882 19.0257 162.544 17.4528 162.544 15.6186C162.544 13.7789 162.885 12.2059 163.569 10.8998C164.253 9.58806 165.183 8.58483 166.362 7.89006C167.539 7.1953 168.874 6.84792 170.363 6.84792C171.313 6.84792 172.198 6.98131 173.014 7.2481C173.831 7.5149 174.56 7.90674 175.199 8.42364C175.838 8.93498 176.363 9.56305 176.775 10.3078C177.191 11.0471 177.463 11.8919 177.592 12.8423Z" fill="black"/>
<path d="M180.659 24.1558V7.08138H191.764V9.67421H183.752V14.3097H191.189V16.9025H183.752V21.563H191.831V24.1558H180.659Z" fill="black"/>
<path d="M200.915 6.84792C201.732 6.85347 202.527 6.99799 203.299 7.28145C204.078 7.55935 204.778 8.01511 205.4 8.64874C206.024 9.2768 206.518 10.1188 206.884 11.1749C207.251 12.2309 207.435 13.537 207.435 15.0933C207.44 16.5606 207.284 17.8723 206.968 19.0285C206.656 20.179 206.209 21.1516 205.625 21.9464C205.042 22.7412 204.339 23.3471 203.516 23.764C202.694 24.1808 201.768 24.3893 200.74 24.3893C199.662 24.3893 198.705 24.1781 197.872 23.7557C197.044 23.3332 196.374 22.7551 195.863 22.0215C195.351 21.2878 195.037 20.4486 194.921 19.5037H197.964C198.119 20.1817 198.436 20.7209 198.915 21.1211C199.398 21.5157 200.006 21.713 200.74 21.713C201.924 21.713 202.835 21.1989 203.474 20.1707C204.114 19.1424 204.434 17.714 204.434 15.8854H204.317C204.045 16.3745 203.691 16.7969 203.258 17.1527C202.825 17.5028 202.333 17.7724 201.782 17.9614C201.238 18.1502 200.66 18.2447 200.049 18.2447C199.048 18.2447 198.147 18.0058 197.347 17.5278C196.552 17.0497 195.921 16.3939 195.455 15.5602C194.993 14.7265 194.759 13.7733 194.754 12.7006C194.754 11.589 195.01 10.5913 195.521 9.70756C196.038 8.81825 196.758 8.11793 197.68 7.6066C198.603 7.08969 199.682 6.83679 200.915 6.84792ZM200.924 9.34906C200.323 9.34906 199.781 9.49635 199.298 9.79094C198.82 10.0799 198.442 10.4745 198.164 10.9748C197.892 11.4695 197.756 12.0225 197.756 12.6339C197.761 13.2397 197.897 13.7899 198.164 14.2846C198.436 14.7793 198.806 15.1712 199.273 15.4601C199.745 15.7492 200.284 15.8937 200.89 15.8937C201.341 15.8937 201.76 15.8076 202.149 15.6352C202.538 15.463 202.878 15.224 203.166 14.9183C203.461 14.607 203.689 14.2541 203.85 13.8595C204.016 13.4649 204.097 13.0479 204.092 12.6089C204.092 12.0253 203.953 11.4861 203.675 10.9915C203.403 10.4968 203.027 10.0994 202.549 9.79925C202.076 9.49913 201.535 9.34906 200.924 9.34906Z" fill="black"/>
<path d="M217.391 7.08138V24.1558H214.297V10.0911H214.198L210.205 12.6423V9.80759L214.448 7.08138H217.391Z" fill="black"/>
<path d="M0 2.89844C0 1.29767 1.29767 0 2.89844 0H28.4047C30.0054 0 31.3031 1.29767 31.3031 2.89844V28.4047C31.3031 30.0054 30.0054 31.3031 28.4047 31.3031H2.89844C1.29767 31.3031 0 30.0054 0 28.4047V2.89844Z" fill="black"/>
<path d="M4.63034 9.41991L2.91269 3.51764H4.48913L5.37965 7.38524H5.42865L6.44598 3.51764H7.73134L8.74868 7.39389H8.79767L9.69108 3.51764H11.2646L9.54987 9.41991H8.17517L7.11172 5.84051H7.06561L6.00216 9.41991H4.63034Z" fill="white"/>
<path d="M17.0762 6.46881C17.0762 7.11821 16.9513 7.66867 16.7016 8.12018C16.4518 8.57169 16.1137 8.91464 15.6872 9.14903C15.2625 9.38344 14.786 9.50064 14.2577 9.50064C13.7274 9.50064 13.2499 9.38248 12.8253 9.14616C12.4007 8.90984 12.0635 8.56688 11.8138 8.11729C11.5659 7.66578 11.442 7.11629 11.442 6.46881C11.442 5.8194 11.5659 5.26894 11.8138 4.81743C12.0635 4.36592 12.4007 4.02297 12.8253 3.78858C13.2499 3.55417 13.7274 3.43697 14.2577 3.43697C14.786 3.43697 15.2625 3.55417 15.6872 3.78858C16.1137 4.02297 16.4518 4.36592 16.7016 4.81743C16.9513 5.26894 17.0762 5.8194 17.0762 6.46881ZM15.6179 6.46881C15.6179 6.08454 15.5632 5.75984 15.4536 5.4947C15.346 5.22956 15.1904 5.02878 14.9867 4.89236C14.785 4.75595 14.542 4.68775 14.2577 4.68775C13.9753 4.68775 13.7322 4.75595 13.5285 4.89236C13.3248 5.02878 13.1682 5.22956 13.0588 5.4947C12.9512 5.75984 12.8974 6.08454 12.8974 6.46881C12.8974 6.85307 12.9512 7.17777 13.0588 7.44292C13.1682 7.70805 13.3248 7.90883 13.5285 8.04525C13.7322 8.18166 13.9753 8.24986 14.2577 8.24986C14.542 8.24986 14.785 8.18166 14.9867 8.04525C15.1904 7.90883 15.346 7.70805 15.4536 7.44292C15.5632 7.17777 15.6179 6.85307 15.6179 6.46881Z" fill="white"/>
<path d="M17.9091 9.41991V3.51764H20.3472C20.7891 3.51764 21.1705 3.59737 21.4914 3.75684C21.8141 3.91439 22.063 4.14111 22.2378 4.43698C22.4126 4.73095 22.5001 5.07967 22.5001 5.48314C22.5001 5.89238 22.4107 6.24014 22.232 6.52642C22.0533 6.81077 21.7997 7.02788 21.4712 7.17774C21.1427 7.32569 20.7535 7.39965 20.3039 7.39965H18.7622V6.27568H20.0388C20.2541 6.27568 20.4337 6.24782 20.5777 6.19211C20.7238 6.13446 20.8342 6.04801 20.9092 5.93274C20.9841 5.81553 21.0216 5.66567 21.0216 5.48314C21.0216 5.30062 20.9841 5.1498 20.9092 5.03068C20.8342 4.90963 20.7238 4.81933 20.5777 4.75977C20.4318 4.69829 20.2521 4.66755 20.0388 4.66755H19.3357V9.41991H17.9091ZM21.232 6.72239L22.7018 9.41991H21.1455L19.7046 6.72239H21.232Z" fill="white"/>
<path d="M23.2825 9.41991V3.51764H24.709V6.01343H24.7868L26.7379 3.51764H28.4181L26.3258 6.15176L28.4556 9.41991H26.7495L25.2796 7.09993L24.709 7.82042V9.41991H23.2825Z" fill="white"/>
<path d="M6.16261 12.1012C6.14409 11.8974 6.06163 11.739 5.91527 11.626C5.77077 11.5111 5.56419 11.4537 5.29555 11.4537C5.11769 11.4537 4.96948 11.4768 4.85091 11.5232C4.73233 11.5694 4.6434 11.6334 4.58412 11.7149C4.52483 11.7945 4.49426 11.8863 4.49241 11.9901C4.4887 12.0753 4.50538 12.1503 4.54242 12.2152C4.58134 12.28 4.63692 12.3374 4.70917 12.3874C4.78328 12.4356 4.87221 12.4782 4.97596 12.5153C5.07971 12.5524 5.19643 12.5847 5.32612 12.6125L5.81523 12.7237C6.09684 12.7849 6.3451 12.8664 6.56001 12.9683C6.77678 13.0701 6.95834 13.1915 7.1047 13.3323C7.25292 13.4731 7.36501 13.6352 7.44097 13.8187C7.51693 14.0021 7.55584 14.2077 7.55769 14.4355C7.55584 14.795 7.46505 15.1035 7.28534 15.361C7.10563 15.6185 6.84719 15.8158 6.50999 15.953C6.17466 16.09 5.76984 16.1586 5.29555 16.1586C4.81941 16.1586 4.40441 16.0873 4.05053 15.9446C3.69667 15.8019 3.42155 15.5851 3.22516 15.2943C3.02878 15.0034 2.92781 14.6357 2.92224 14.1911H4.23952C4.25063 14.3744 4.29973 14.5273 4.3868 14.6496C4.47388 14.7718 4.59338 14.8645 4.7453 14.9275C4.89907 14.9905 5.07693 15.022 5.27888 15.022C5.46414 15.022 5.62162 14.9969 5.75131 14.9469C5.88285 14.8969 5.98383 14.8274 6.05423 14.7385C6.12463 14.6496 6.16076 14.5476 6.16261 14.4328C6.16076 14.3254 6.12741 14.2336 6.06256 14.1577C5.99772 14.0799 5.89767 14.0131 5.76242 13.9576C5.62903 13.9002 5.45859 13.8473 5.25109 13.7992L4.65637 13.6602C4.16355 13.5472 3.77541 13.3648 3.49195 13.1128C3.20849 12.8589 3.06768 12.5162 3.06953 12.0845C3.06768 11.7325 3.16217 11.4241 3.353 11.1591C3.54382 10.8942 3.80784 10.6876 4.14502 10.5394C4.48221 10.3912 4.86665 10.317 5.29833 10.317C5.73927 10.317 6.12185 10.392 6.44608 10.5421C6.77215 10.6904 7.02504 10.8988 7.20476 11.1674C7.38447 11.4361 7.47617 11.7473 7.47988 12.1012H6.16261Z" fill="white"/>
<path d="M8.25244 16.0863V10.3949H10.6035C11.0296 10.3949 11.3974 10.4782 11.7068 10.6449C12.018 10.8098 12.258 11.0405 12.4265 11.3369C12.5952 11.6315 12.6794 11.9743 12.6794 12.3652C12.6794 12.758 12.5933 13.1016 12.421 13.3963C12.2506 13.6889 12.0069 13.9159 11.6901 14.0771C11.3733 14.2382 10.9972 14.3188 10.5619 14.3188H9.11116V13.235H10.3062C10.5136 13.235 10.6869 13.1989 10.8259 13.1267C10.9666 13.0544 11.0732 12.9534 11.1455 12.8237C11.2177 12.6922 11.2539 12.5393 11.2539 12.3652C11.2539 12.1891 11.2177 12.0372 11.1455 11.9095C11.0732 11.7797 10.9666 11.6797 10.8259 11.6092C10.685 11.5389 10.5118 11.5037 10.3062 11.5037H9.62807V16.0863H8.25244Z" fill="white"/>
<path d="M13.9008 16.0863H12.4225L14.3427 10.3949H16.1741L18.0944 16.0863H16.616L15.2793 11.8289H15.2348L13.9008 16.0863ZM13.7035 13.8464H16.7938V14.8914H13.7035V13.8464Z" fill="white"/>
<path d="M23.606 12.4569H22.2164C22.1979 12.3143 22.16 12.1855 22.1025 12.0706C22.045 11.9557 21.9691 11.8575 21.8746 11.776C21.7801 11.6946 21.668 11.6324 21.5383 11.5899C21.4106 11.5454 21.2688 11.5232 21.1132 11.5232C20.8371 11.5232 20.599 11.5908 20.399 11.726C20.2007 11.8612 20.0479 12.0567 19.9404 12.3124C19.8349 12.5681 19.782 12.8774 19.782 13.2406C19.782 13.6185 19.8357 13.9354 19.9432 14.1911C20.0525 14.4448 20.2054 14.6366 20.4017 14.7663C20.6 14.8941 20.8343 14.958 21.1049 14.958C21.2568 14.958 21.3948 14.9386 21.519 14.8997C21.6449 14.8608 21.7551 14.8042 21.8496 14.7302C21.946 14.6542 22.0247 14.5625 22.0858 14.455C22.1488 14.3457 22.1924 14.2225 22.2164 14.0854L23.606 14.0937C23.5819 14.3457 23.5087 14.594 23.3864 14.8386C23.266 15.0831 23.1002 15.3063 22.889 15.5083C22.6778 15.7084 22.4203 15.8677 22.1165 15.9863C21.8144 16.1049 21.468 16.1642 21.0771 16.1642C20.562 16.1642 20.1006 16.0512 19.6931 15.8251C19.2873 15.5973 18.9669 15.2656 18.7315 14.8302C18.4963 14.3948 18.3786 13.8649 18.3786 13.2406C18.3786 12.6144 18.4981 12.0836 18.7371 11.6482C18.9761 11.2128 19.2994 10.8821 19.707 10.6561C20.1146 10.4301 20.5713 10.317 21.0771 10.317C21.4216 10.317 21.7403 10.3652 22.033 10.4615C22.3258 10.556 22.5833 10.695 22.8056 10.8784C23.028 11.06 23.2085 11.2832 23.3476 11.5481C23.4865 11.8131 23.5726 12.116 23.606 12.4569Z" fill="white"/>
<path d="M24.3931 16.0863V10.3949H28.3616V11.512H25.7687V12.6792H28.1587V13.7992H25.7687V14.9691H28.3616V16.0863H24.3931Z" fill="white"/>
<path d="M7.40556 18.1555C7.98195 18.1555 8.53261 18.2499 9.05755 18.4386C9.58248 18.6239 10.0508 18.9207 10.4625 19.3289C10.8742 19.7338 11.1984 20.2673 11.4351 20.9295C11.6719 21.5916 11.7902 22.3996 11.7902 23.3534C11.7937 24.2317 11.6907 25.0191 11.4815 25.7156C11.2722 26.4086 10.972 26.9987 10.5809 27.4859C10.1932 27.9732 9.72657 28.3454 9.18106 28.6027C8.63554 28.8566 8.02656 28.9836 7.3541 28.9836C6.61302 28.9836 5.95943 28.8411 5.39333 28.5564C4.83065 28.2682 4.37949 27.8805 4.03983 27.3933C3.7036 26.9061 3.50289 26.3606 3.4377 25.7568H5.94399C6.0229 26.1067 6.1893 26.3709 6.44319 26.5493C6.69707 26.7243 7.00071 26.8118 7.3541 26.8118C7.99911 26.8118 8.48115 26.5321 8.80022 25.9729C9.1193 25.4136 9.27884 24.6538 9.27884 23.693H9.21708C9.06956 24.0087 8.86027 24.2798 8.58922 24.5062C8.32161 24.7326 8.01111 24.9059 7.65773 25.026C7.30435 25.1461 6.93209 25.2061 6.54097 25.2061C5.90968 25.2061 5.35215 25.062 4.86839 24.7738C4.38807 24.4856 4.01067 24.0893 3.7362 23.5849C3.46515 23.0807 3.32792 22.5042 3.32448 21.8558C3.32105 21.1284 3.49088 20.4869 3.83397 19.9311C4.17706 19.3718 4.65568 18.9361 5.26982 18.6239C5.88395 18.3082 6.59587 18.1521 7.40556 18.1555ZM7.421 20.1112C7.10536 20.1112 6.82402 20.1849 6.577 20.3325C6.3334 20.48 6.14127 20.679 6.0006 20.9295C5.85993 21.1799 5.79131 21.4612 5.79474 21.7735C5.79818 22.0857 5.86851 22.3671 6.00574 22.6175C6.14641 22.8679 6.33683 23.0669 6.577 23.2145C6.82058 23.362 7.09849 23.4358 7.41071 23.4358C7.644 23.4358 7.86015 23.3928 8.05915 23.3071C8.25814 23.2213 8.43141 23.103 8.57893 22.9519C8.72647 22.7976 8.8414 22.6191 8.92375 22.4167C9.00952 22.2144 9.05069 21.9982 9.04726 21.7683C9.04382 21.463 8.97178 21.1851 8.83111 20.9346C8.69044 20.6841 8.49659 20.4851 8.24956 20.3376C8.00597 20.1867 7.72978 20.1112 7.421 20.1112Z" fill="white"/>
<path d="M17.5557 18.2997V28.8395H15.0134V20.6773H14.9517L12.5946 22.1183V19.9156L15.1936 18.2997H17.5557Z" fill="white"/>
</svg>
