<svg width="100" height="100" viewBox="0 0 100 100" fill="none" xmlns="http://www.w3.org/2000/svg">
<path fill-rule="evenodd" clip-rule="evenodd" d="M8 0C3.58172 0 0 3.58172 0 8V92C0 96.4183 3.58172 100 8 100H92C96.4183 100 100 96.4183 100 92V8C100 3.58172 96.4183 0 92 0H8ZM57.6319 20C58.5192 20 59.3125 20.5532 59.6191 21.386L80.1517 77.1507C80.6607 78.5331 79.6376 80 78.1645 80H22.1195C20.6463 80 19.6233 78.5331 20.1323 77.1507L40.6649 21.386C40.9715 20.5532 41.7648 20 42.6521 20H57.6319ZM50.142 34.4629L61.9706 66.5882H38.3134L50.142 34.4629Z" fill="url(#paint0_linear_367_85)"/>
<defs>
<linearGradient id="paint0_linear_367_85" x1="0.109315" y1="49.6487" x2="99.9274" y2="49.6487" gradientUnits="userSpaceOnUse">
<stop stop-color="#D90000"/>
<stop offset="0.25" stop-color="#6720B0"/>
<stop offset="0.5" stop-color="#34199C"/>
<stop offset="0.75" stop-color="#4764E6"/>
<stop offset="1" stop-color="#0094D5"/>
</linearGradient>
</defs>
</svg>
