<svg width="421" height="127" viewBox="0 0 421 127" fill="none" xmlns="http://www.w3.org/2000/svg">
<path fill-rule="evenodd" clip-rule="evenodd" d="M110.914 32.44C108.332 32.44 106.132 31.956 104.314 30.988C102.524 30.02 101.146 28.656 100.178 26.896C99.2391 25.136 98.7111 23.068 98.5938 20.692C98.5645 19.4013 98.5498 18.0373 98.5498 16.6C98.5498 15.1333 98.5645 13.74 98.5938 12.42C98.7111 10.044 99.2391 7.99068 100.178 6.26001C101.146 4.52934 102.539 3.18001 104.358 2.21201C106.176 1.24401 108.362 0.76001 110.914 0.76001C112.996 0.76001 114.8 1.05334 116.326 1.64001C117.851 2.22668 119.098 2.97468 120.066 3.88401C121.063 4.76401 121.796 5.68801 122.266 6.65601C122.764 7.62401 123.028 8.47468 123.058 9.20801C123.087 9.47201 123.014 9.69201 122.838 9.86801C122.662 10.0147 122.427 10.088 122.134 10.088H119.538C119.244 10.088 119.024 10.0293 118.878 9.91201C118.76 9.79468 118.643 9.58934 118.526 9.29601C118.262 8.53334 117.822 7.78534 117.206 7.05201C116.619 6.31868 115.812 5.71734 114.786 5.24801C113.788 4.74934 112.498 4.50001 110.914 4.50001C108.596 4.50001 106.719 5.13068 105.282 6.39201C103.874 7.65334 103.111 9.73601 102.994 12.64C102.906 15.2507 102.906 17.8613 102.994 20.472C103.111 23.4053 103.888 25.5173 105.326 26.808C106.763 28.0693 108.64 28.7 110.958 28.7C112.512 28.7 113.891 28.4213 115.094 27.864C116.326 27.2773 117.294 26.3827 117.998 25.18C118.702 23.9773 119.054 22.452 119.054 20.604V18.756H112.454C112.16 18.756 111.911 18.668 111.706 18.492C111.53 18.2867 111.442 18.0227 111.442 17.7V16.292C111.442 15.9693 111.53 15.72 111.706 15.544C111.911 15.3387 112.16 15.236 112.454 15.236H122.398C122.72 15.236 122.97 15.3387 123.146 15.544C123.322 15.72 123.41 15.9693 123.41 16.292V20.516C123.41 22.9213 122.911 25.0187 121.914 26.808C120.946 28.5973 119.523 29.9907 117.646 30.988C115.768 31.956 113.524 32.44 110.914 32.44ZM10.8241 31.736C11.0294 31.912 11.2788 32 11.5721 32H13.8601C14.1828 32 14.4321 31.912 14.6081 31.736C14.8134 31.5307 14.9161 31.2813 14.9161 30.988V5.11601H23.3201C23.6428 5.11601 23.8921 5.02801 24.0681 4.85201C24.2734 4.64668 24.3761 4.39734 24.3761 4.10401V2.25601C24.3761 1.93334 24.2734 1.68401 24.0681 1.50801C23.8921 1.30268 23.6428 1.20001 23.3201 1.20001H2.1121C1.81876 1.20001 1.56943 1.30268 1.3641 1.50801C1.1881 1.68401 1.1001 1.93334 1.1001 2.25601V4.10401C1.1001 4.39734 1.1881 4.64668 1.3641 4.85201C1.56943 5.02801 1.81876 5.11601 2.1121 5.11601H10.5601V30.988C10.5601 31.2813 10.6481 31.5307 10.8241 31.736ZM28.6926 31.736C28.8686 31.912 29.1179 32 29.4406 32H31.6846C32.0072 32 32.2566 31.912 32.4326 31.736C32.6379 31.5307 32.7406 31.2813 32.7406 30.988V18.36H47.8766V30.988C47.8766 31.2813 47.9646 31.5307 48.1406 31.736C48.3459 31.912 48.5952 32 48.8886 32H51.1326C51.4552 32 51.7046 31.912 51.8806 31.736C52.0859 31.5307 52.1886 31.2813 52.1886 30.988V2.25601C52.1886 1.93334 52.0859 1.68401 51.8806 1.50801C51.7046 1.30268 51.4552 1.20001 51.1326 1.20001H48.8886C48.5952 1.20001 48.3459 1.30268 48.1406 1.50801C47.9646 1.68401 47.8766 1.93334 47.8766 2.25601V14.4H32.7406V2.25601C32.7406 1.93334 32.6379 1.68401 32.4326 1.50801C32.2566 1.30268 32.0072 1.20001 31.6846 1.20001H29.4406C29.1179 1.20001 28.8686 1.30268 28.6926 1.50801C28.5166 1.68401 28.4286 1.93334 28.4286 2.25601V30.988C28.4286 31.2813 28.5166 31.5307 28.6926 31.736ZM59.9278 32C59.6051 32 59.3558 31.912 59.1798 31.736C59.0038 31.5307 58.9158 31.2813 58.9158 30.988V2.21201C58.9158 1.91868 59.0038 1.68401 59.1798 1.50801C59.3558 1.30268 59.6051 1.20001 59.9278 1.20001H62.2598C62.5531 1.20001 62.7878 1.30268 62.9638 1.50801C63.1691 1.68401 63.2718 1.91868 63.2718 2.21201V30.988C63.2718 31.2813 63.1691 31.5307 62.9638 31.736C62.7878 31.912 62.5531 32 62.2598 32H59.9278ZM70.331 31.736C70.507 31.912 70.7563 32 71.079 32H73.191C73.5137 32 73.763 31.912 73.939 31.736C74.1443 31.5307 74.247 31.2813 74.247 30.988V9.16401L88.811 31.384C88.8697 31.4427 88.9723 31.56 89.119 31.736C89.295 31.912 89.5443 32 89.867 32H91.979C92.2723 32 92.507 31.8973 92.683 31.692C92.8883 31.4867 92.991 31.2373 92.991 30.944V2.25601C92.991 1.93334 92.8883 1.68401 92.683 1.50801C92.507 1.30268 92.2577 1.20001 91.935 1.20001H89.823C89.5003 1.20001 89.251 1.30268 89.075 1.50801C88.899 1.68401 88.811 1.93334 88.811 2.25601V24.256L74.203 1.81601C74.1737 1.72801 74.071 1.61068 73.895 1.46401C73.719 1.28801 73.455 1.20001 73.103 1.20001H71.079C70.7563 1.20001 70.507 1.30268 70.331 1.50801C70.155 1.68401 70.067 1.93334 70.067 2.25601V30.988C70.067 31.2813 70.155 31.5307 70.331 31.736ZM132.283 31.296C134.014 32.0587 136.155 32.44 138.707 32.44C141.083 32.44 143.136 32.1027 144.867 31.428C146.627 30.724 147.991 29.7267 148.959 28.436C149.927 27.116 150.411 25.532 150.411 23.684C150.411 22.012 150.044 20.648 149.311 19.592C148.607 18.5067 147.507 17.612 146.011 16.908C144.515 16.1747 142.594 15.4853 140.247 14.84C138.311 14.2827 136.742 13.7547 135.539 13.256C134.336 12.7573 133.456 12.1853 132.899 11.54C132.342 10.8653 132.063 10.0293 132.063 9.03201C132.063 7.47734 132.65 6.33334 133.823 5.60001C135.026 4.86668 136.58 4.50001 138.487 4.50001C140.364 4.50001 141.89 4.91068 143.063 5.73201C144.236 6.55335 144.911 7.56534 145.087 8.76801C145.204 9.09068 145.366 9.31068 145.571 9.42801C145.806 9.54534 146.026 9.60401 146.231 9.60401H148.563C148.886 9.60401 149.12 9.51601 149.267 9.34001C149.414 9.13468 149.487 8.92934 149.487 8.72401C149.458 7.84401 149.208 6.94934 148.739 6.04001C148.27 5.10134 147.58 4.23601 146.671 3.44401C145.762 2.62268 144.618 1.97734 143.239 1.50801C141.89 1.00934 140.306 0.76001 138.487 0.76001C136.199 0.76001 134.248 1.12668 132.635 1.86001C131.051 2.59334 129.834 3.59068 128.983 4.85201C128.132 6.08401 127.707 7.49201 127.707 9.07601C127.707 10.748 128.044 12.1267 128.719 13.212C129.423 14.2973 130.479 15.2067 131.887 15.94C133.295 16.6733 135.07 17.348 137.211 17.964C139.264 18.5507 140.936 19.0933 142.227 19.592C143.518 20.0907 144.471 20.6627 145.087 21.308C145.732 21.924 146.055 22.7453 146.055 23.772C146.055 25.268 145.454 26.4707 144.251 27.38C143.078 28.26 141.23 28.7 138.707 28.7C137.064 28.7 135.715 28.48 134.659 28.04C133.632 27.5707 132.826 26.9987 132.239 26.324C131.682 25.62 131.33 24.916 131.183 24.212C131.124 23.9773 131.007 23.772 130.831 23.596C130.655 23.42 130.391 23.332 130.039 23.332H127.795C127.531 23.332 127.296 23.4347 127.091 23.64C126.915 23.816 126.827 24.0213 126.827 24.256C126.886 25.664 127.37 26.9987 128.279 28.26C129.218 29.492 130.552 30.504 132.283 31.296ZM176.247 32.44C173.754 32.44 171.613 32.0147 169.823 31.164C168.034 30.284 166.655 28.9493 165.687 27.16C164.719 25.3413 164.177 23.068 164.059 20.34C164.03 19.0493 164.015 17.8173 164.015 16.644C164.015 15.4413 164.03 14.1947 164.059 12.904C164.177 10.2053 164.734 7.96134 165.731 6.17201C166.758 4.35334 168.166 3.00401 169.955 2.12401C171.774 1.21468 173.871 0.76001 176.247 0.76001C178.653 0.76001 180.75 1.21468 182.539 2.12401C184.358 3.00401 185.781 4.35334 186.807 6.17201C187.834 7.96134 188.391 10.2053 188.479 12.904C188.538 14.1947 188.567 15.4413 188.567 16.644C188.567 17.8173 188.538 19.0493 188.479 20.34C188.391 23.068 187.849 25.3413 186.851 27.16C185.883 28.9493 184.505 30.284 182.715 31.164C180.926 32.0147 178.77 32.44 176.247 32.44ZM176.247 28.7C178.506 28.7 180.339 28.0253 181.747 26.676C183.185 25.3267 183.962 23.1413 184.079 20.12C184.138 18.8 184.167 17.6267 184.167 16.6C184.167 15.544 184.138 14.3707 184.079 13.08C184.021 11.056 183.639 9.41334 182.935 8.15201C182.261 6.89068 181.351 5.96668 180.207 5.38001C179.063 4.79334 177.743 4.50001 176.247 4.50001C174.81 4.50001 173.519 4.79334 172.375 5.38001C171.231 5.96668 170.307 6.89068 169.603 8.15201C168.929 9.41334 168.547 11.056 168.459 13.08C168.43 14.3707 168.415 15.544 168.415 16.6C168.415 17.6267 168.43 18.8 168.459 20.12C168.577 23.1413 169.354 25.3267 170.791 26.676C172.229 28.0253 174.047 28.7 176.247 28.7ZM194.365 31.736C194.541 31.912 194.79 32 195.113 32H197.313C197.635 32 197.885 31.912 198.061 31.736C198.266 31.5307 198.369 31.2813 198.369 30.988V19.108H212.185C212.507 19.108 212.757 19.02 212.933 18.844C213.109 18.6387 213.197 18.3893 213.197 18.096V16.336C213.197 16.0133 213.109 15.764 212.933 15.588C212.757 15.3827 212.507 15.28 212.185 15.28H198.369V5.02801H213.065C213.387 5.02801 213.637 4.94001 213.813 4.76401C213.989 4.58801 214.077 4.33868 214.077 4.01601V2.25601C214.077 1.93334 213.989 1.68401 213.813 1.50801C213.637 1.30268 213.387 1.20001 213.065 1.20001H195.113C194.79 1.20001 194.541 1.30268 194.365 1.50801C194.189 1.68401 194.101 1.93334 194.101 2.25601V30.988C194.101 31.2813 194.189 31.5307 194.365 31.736ZM0.854001 125.546C1.42333 126.115 2.15533 126.4 3.05 126.4H41.358C48.0273 126.4 53.6393 125.383 58.194 123.35C62.83 121.235 66.3273 118.267 68.686 114.444C71.126 110.54 72.346 105.904 72.346 100.536C72.346 96.0627 71.126 92.1587 68.686 88.824C66.3273 85.4893 63.6027 83.09 60.512 81.626C61.8947 80.9753 63.3587 79.918 64.904 78.454C66.5307 76.99 67.8727 75.16 68.93 72.964C70.0687 70.6867 70.638 68.084 70.638 65.156C70.638 60.1947 69.54 55.9247 67.344 52.346C65.2293 48.686 61.9353 45.88 57.462 43.928C52.9887 41.976 47.2547 41 40.26 41H3.05C2.15533 41 1.42333 41.2847 0.854001 41.854C0.284667 42.4233 0 43.1553 0 44.05V123.35C0 124.245 0.284667 124.977 0.854001 125.546ZM38.918 110.54H21.838V90.41H38.918C42.334 90.41 44.9367 91.386 46.726 93.338C48.5967 95.29 49.532 97.6893 49.532 100.536C49.532 103.139 48.6373 105.457 46.848 107.49C45.0587 109.523 42.4153 110.54 38.918 110.54ZM37.82 74.916H21.838V56.86H37.82C41.1547 56.86 43.6353 57.714 45.262 59.422C46.97 61.0487 47.824 63.1633 47.824 65.766C47.824 68.45 46.97 70.646 45.262 72.354C43.6353 74.062 41.1547 74.916 37.82 74.916ZM86.7544 125.546C87.3237 126.115 88.0557 126.4 88.9504 126.4H104.688C105.583 126.4 106.315 126.115 106.884 125.546C107.454 124.977 107.738 124.245 107.738 123.35V96.266H120.304L134.212 123.106C134.538 123.757 135.066 124.489 135.798 125.302C136.53 126.034 137.669 126.4 139.214 126.4H155.318C156.05 126.4 156.66 126.156 157.148 125.668C157.718 125.099 158.002 124.489 158.002 123.838C158.002 123.431 157.88 122.984 157.636 122.496L140.8 92.484C145.355 90.4507 149.015 87.4413 151.78 83.456C154.627 79.4707 156.05 74.5907 156.05 68.816C156.05 59.9507 153 53.1187 146.9 48.32C140.882 43.44 132.626 41 122.134 41H88.9504C88.0557 41 87.3237 41.2847 86.7544 41.854C86.1851 42.4233 85.9004 43.1553 85.9004 44.05V123.35C85.9004 124.245 86.1851 124.977 86.7544 125.546ZM121.89 79.064H107.738V57.958H121.89C125.876 57.958 128.763 58.934 130.552 60.886C132.423 62.838 133.358 65.4 133.358 68.572C133.358 71.8253 132.382 74.3873 130.43 76.258C128.56 78.1287 125.713 79.064 121.89 79.064ZM260.854 125.546C261.423 126.115 262.155 126.4 263.05 126.4H277.69C278.585 126.4 279.317 126.115 279.886 125.546C280.455 124.977 280.74 124.245 280.74 123.35V78.942L310.508 124.082C310.671 124.326 311.037 124.773 311.606 125.424C312.257 126.075 313.233 126.4 314.534 126.4H327.588C328.483 126.4 329.215 126.115 329.784 125.546C330.353 124.895 330.638 124.163 330.638 123.35V44.05C330.638 43.1553 330.353 42.4233 329.784 41.854C329.215 41.2847 328.483 41 327.588 41H312.948C312.053 41 311.321 41.2847 310.752 41.854C310.183 42.4233 309.898 43.1553 309.898 44.05V90.288L280.13 43.318C279.967 42.9927 279.561 42.5453 278.91 41.976C278.341 41.3253 277.365 41 275.982 41H263.05C262.155 41 261.423 41.2847 260.854 41.854C260.285 42.4233 260 43.1553 260 44.05V123.35C260 124.245 260.285 124.977 260.854 125.546ZM348.542 125.546C349.111 126.115 349.843 126.4 350.737 126.4H383.068C391.038 126.4 397.748 125.221 403.198 122.862C408.728 120.422 412.917 116.721 415.763 111.76C418.691 106.799 420.318 100.536 420.643 92.972C420.725 89.4747 420.766 86.384 420.766 83.7C420.766 81.016 420.725 77.8847 420.643 74.306C420.4 67.0673 418.773 61.008 415.763 56.128C412.754 51.1667 408.444 47.4253 402.832 44.904C397.22 42.3013 390.428 41 382.457 41H350.737C349.843 41 349.111 41.2847 348.542 41.854C347.972 42.4233 347.688 43.1553 347.688 44.05V123.35C347.688 124.245 347.972 124.977 348.542 125.546ZM382.457 108.832H369.526V58.568H381.848C387.215 58.568 391.242 59.8693 393.926 62.472C396.691 64.9933 398.155 69.0193 398.318 74.55C398.48 76.8273 398.562 78.9013 398.562 80.772C398.643 82.6427 398.643 84.5133 398.562 86.384C398.562 88.2547 398.48 90.3693 398.318 92.728C398.236 96.5507 397.586 99.6413 396.366 102C395.227 104.359 393.478 106.107 391.12 107.246C388.842 108.303 385.955 108.832 382.457 108.832ZM221.886 43.3634C221.451 42.1838 220.328 41.4 219.071 41.4H197.849C196.592 41.4 195.468 42.1838 195.034 43.3634L165.946 122.363C165.225 124.322 166.674 126.4 168.761 126.4H248.158C250.245 126.4 251.695 124.322 250.974 122.363L221.886 43.3634ZM225.217 107.4L208.46 61.889L191.703 107.4H225.217Z" fill="url(#paint0_linear_367_83)"/>
<defs>
<linearGradient id="paint0_linear_367_83" x1="0.459962" y1="63.1386" x2="420.46" y2="63.1386" gradientUnits="userSpaceOnUse">
<stop stop-color="#D90000"/>
<stop offset="0.25" stop-color="#6720B0"/>
<stop offset="0.5" stop-color="#34199C"/>
<stop offset="0.75" stop-color="#4764E6"/>
<stop offset="1" stop-color="#0094D5"/>
</linearGradient>
</defs>
</svg>
